<svg width="40" height="632" viewBox="0 0 40 632" fill="none" xmlns="http://www.w3.org/2000/svg">
<path d="M20 0V292" stroke="#BABABA"/>
<path d="M17.0026 322.112C15.9679 322.112 15.0239 321.872 14.1706 321.392C13.3172 320.901 12.6399 320.224 12.1386 319.36C11.6479 318.485 11.4026 317.504 11.4026 316.416C11.4026 315.328 11.6479 314.352 12.1386 313.488C12.6399 312.613 13.3172 311.936 14.1706 311.456C15.0239 310.965 15.9679 310.72 17.0026 310.72C18.0479 310.72 18.9972 310.965 19.8506 311.456C20.7039 311.936 21.3759 312.608 21.8666 313.472C22.3572 314.336 22.6026 315.317 22.6026 316.416C22.6026 317.515 22.3572 318.496 21.8666 319.36C21.3759 320.224 20.7039 320.901 19.8506 321.392C18.9972 321.872 18.0479 322.112 17.0026 322.112ZM17.0026 320.848C17.7812 320.848 18.4799 320.667 19.0986 320.304C19.7279 319.941 20.2186 319.424 20.5706 318.752C20.9332 318.08 21.1146 317.301 21.1146 316.416C21.1146 315.52 20.9332 314.741 20.5706 314.08C20.2186 313.408 19.7332 312.891 19.1146 312.528C18.4959 312.165 17.7919 311.984 17.0026 311.984C16.2132 311.984 15.5092 312.165 14.8906 312.528C14.2719 312.891 13.7812 313.408 13.4186 314.08C13.0666 314.741 12.8906 315.52 12.8906 316.416C12.8906 317.301 13.0666 318.08 13.4186 318.752C13.7812 319.424 14.2719 319.941 14.8906 320.304C15.5199 320.667 16.2239 320.848 17.0026 320.848ZM26.0047 314.656C26.2607 314.155 26.6234 313.765 27.0927 313.488C27.5727 313.211 28.154 313.072 28.8367 313.072V314.576H28.4527C26.8207 314.576 26.0047 315.461 26.0047 317.232V322H24.5487V313.232H26.0047V314.656Z" fill="#394560"/>
<path d="M20 340V632" stroke="#BABABA"/>
</svg>
